<?xml version="1.0" encoding="UTF-8" standalone="no"?>
<!-- Created with Inkscape (http://www.inkscape.org/) -->

<svg
   xmlns:dc="http://purl.org/dc/elements/1.1/"
   xmlns:cc="http://creativecommons.org/ns#"
   xmlns:rdf="http://www.w3.org/1999/02/22-rdf-syntax-ns#"
   xmlns:svg="http://www.w3.org/2000/svg"
   xmlns="http://www.w3.org/2000/svg"
   xmlns:sodipodi="http://sodipodi.sourceforge.net/DTD/sodipodi-0.dtd"
   xmlns:inkscape="http://www.inkscape.org/namespaces/inkscape"
   version="1.1"
   id="svg3713"
   xml:space="preserve"
   width="1866.6667"
   height="1306.6667"
   viewBox="0 0 1866.6667 1306.6667"
   sodipodi:docname="Bird flying silhouette.svg"
   inkscape:version="0.92.5 (2060ec1f9f, 2020-04-08)"><metadata
     id="metadata3719"><rdf:RDF><cc:Work
         rdf:about=""><dc:format>image/svg+xml</dc:format><dc:type
           rdf:resource="http://purl.org/dc/dcmitype/StillImage" /><dc:title></dc:title></cc:Work></rdf:RDF></metadata><defs
     id="defs3717"><clipPath
       clipPathUnits="userSpaceOnUse"
       id="clipPath3729"><path
         d="M 0,980 H 1400 V 0 H 0 Z"
         id="path3727"
         inkscape:connector-curvature="0" /></clipPath></defs><sodipodi:namedview
     pagecolor="#ffffff"
     bordercolor="#666666"
     borderopacity="1"
     objecttolerance="10"
     gridtolerance="10"
     guidetolerance="10"
     inkscape:pageopacity="0"
     inkscape:pageshadow="2"
     inkscape:window-width="1920"
     inkscape:window-height="986"
     id="namedview3715"
     showgrid="false"
     inkscape:zoom="0.58392854"
     inkscape:cx="933.33337"
     inkscape:cy="653.33337"
     inkscape:window-x="-11"
     inkscape:window-y="-11"
     inkscape:window-maximized="1"
     inkscape:current-layer="g3721" /><g
     id="g3721"
     inkscape:groupmode="layer"
     inkscape:label="Bird flying silhouette"
     transform="matrix(1.3333333,0,0,-1.3333333,0,1306.6667)"><g
       id="g3723"><g
         id="g3725"
         clip-path="url(#clipPath3729)"><g
           id="g3731"
           transform="translate(1343.873,349.0293)"><path
             d="m 0,0 c -2.28,-2.675 -5.471,-6.42 -8.89,-10.433 v -4.696 c -4.626,-5.588 -8.967,-10.83 -13.355,-16.129 v -7.354 c -3.661,-2.92 -6.188,-7.259 -8.386,-11.983 -1.569,-3.371 -2.853,-7.546 -7.824,-8.2 -1.094,-0.143 -2.723,-2.222 -2.745,-3.435 -0.103,-5.229 -3.659,-8.155 -6.653,-11.647 -2.295,-2.676 -3.959,-5.894 -6.361,-9.576 -3.055,-1.437 -7.35,-2.308 -9.226,-7.482 -1.203,-3.312 -5.234,-5.064 -8.838,-5.805 -4.076,-0.84 -7.414,-2.577 -9.928,-5.781 h -13.432 c -1.081,-1.816 -2.14,-3.598 -3.602,-6.055 -3.383,0.641 -6.792,1.288 -10.388,1.969 -0.437,-1.973 1.523,-2.352 2.297,-3.385 0.943,-1.262 2.02,-2.625 3.361,-3.351 8.508,-4.613 14.528,-12.12 20.506,-19.181 5.058,-5.973 10.412,-11.585 15.818,-17.18 9.003,-9.312 19.589,-16.746 30.078,-24.209 5.009,-3.568 10.899,-5.888 16.299,-8.937 1.275,-0.719 2.177,-2.098 3.82,-3.743 -2.028,-1.198 -3.504,-1.899 -4.773,-2.87 -1.198,-0.916 -2.18,-2.117 -3.153,-3.088 -6.93,3.394 -12.559,6.813 -17.164,13.2 -5.15,7.143 -11.533,14.019 -19.679,18.616 -2.12,1.195 -4.167,2.158 -6.358,3.108 -5.49,2.383 -11.955,1.313 -16.947,5.303 -1.099,0.878 -3.498,0.129 -6.129,0.129 1.339,-1.522 1.922,-2.184 3.483,-3.955 -4.571,1.393 -7.987,1.773 -11.394,3.705 -3.804,2.151 -7.435,-2.281 -11.966,-1.606 -0.545,-4.891 -2.582,-9.012 -6.19,-12.623 -5.944,-5.942 -11.413,-12.362 -17.368,-18.894 4.806,-3.2 9.426,-6.273 13.796,-9.183 -0.303,-2.361 -0.488,-3.809 -0.658,-5.142 h -2.711 c -0.377,1.079 -0.763,2.186 -1.143,3.273 -2.808,0.783 -5.603,1.562 -9.498,2.648 1.425,-4.251 2.592,-7.73 4.047,-12.07 -0.609,-1.221 -1.65,-3.309 -2.793,-5.603 -0.918,0.367 -1.787,0.613 -2.544,1.049 -0.532,0.306 -1.339,0.909 -1.302,1.317 0.416,4.644 -3.462,7.514 -4.992,11.329 -2.646,6.604 -0.955,10.89 3.389,15.466 3.819,4.025 7.949,8.027 10.635,12.779 2.462,4.359 6.14,9.433 1.605,14.902 0.087,8.05 -6.39,8.535 -11.6,10.524 -6.191,-4.359 -9.509,-10.576 -13.16,-16.912 2.052,-1.317 4.328,-2.776 6.758,-4.336 h 7.942 c 0.815,-1.494 1.741,-3.185 3.56,-6.512 -2.585,1.44 -3.429,1.913 -5.49,3.062 0.934,-2.464 1.49,-3.931 2.094,-5.524 -1.577,-1.578 -2.264,-1.185 -3.805,2.756 -2.228,0.348 -4.613,0.646 -6.967,1.103 -1.898,0.368 -3.76,0.922 -6.404,1.586 3.156,-4.236 5.605,-7.524 9.355,-12.56 -7.705,2.727 -12.144,6.531 -16.43,11.108 -1.1,5.097 1.174,9.081 4.727,12.836 5.068,5.352 9.868,10.957 15.4,17.15 -2.968,1.977 -4.941,4.086 -7.312,4.732 -8.973,2.452 -15.301,9.186 -22.888,13.817 -4.306,2.63 -8.208,6.032 -12.662,8.661 -7.608,4.494 -13.688,10.97 -19.395,17.556 -6.196,7.146 -15.075,10.205 -22.188,15.914 -2.279,1.829 -6.295,1.792 -9.558,2.028 -4.416,0.321 -8.874,0.08 -13.216,0.08 -0.998,1 -1.899,1.9 -3.136,3.135 3.373,1.24 6.556,2.408 9.804,3.601 -3.943,2.944 -7.452,-1.135 -11.56,0.357 3.757,2.092 7.299,4.892 11.321,6.111 6.383,1.932 11.902,5.108 17.482,8.596 5.011,3.134 10.639,5.341 17.043,5.122 -3.398,5.046 -6.186,9.984 -9.758,14.263 -3.859,4.62 -8.455,8.627 -13.138,13.31 2.133,8.148 -3.162,14.59 -6.401,21.582 -2.786,6.014 -5.929,11.822 -4.72,19.019 5.509,-0.893 4.535,-8.647 10.699,-9.451 0.181,1.616 0.388,3.035 0.495,4.461 0.483,6.435 -1.101,12.977 1.764,19.319 0.957,2.115 0.387,5.048 0.106,7.563 -0.655,5.876 0.432,15.364 2.714,20.223 0.382,0.812 1.309,1.37 2.238,2.297 2.83,-6.115 5.073,-12.111 4.72,-18.983 -0.357,-6.917 -0.078,-13.865 -0.078,-21.446 3.878,1.981 4.735,5.343 5.608,8.119 3.448,10.978 6.718,21.995 12.545,32.131 h 3.893 c 3.266,-8.739 -1.479,-17.396 -0.909,-28.217 1.8,3.526 2.859,5.322 3.65,7.23 0.787,1.902 1.653,3.877 1.873,5.885 0.54,4.954 3.443,8.292 6.826,11.355 5.433,-0.935 7.787,-3.681 8.58,-8.745 0.945,-6.03 -1.539,-11.525 -2.396,-17.234 -0.703,-4.694 -3.268,-9.111 -5.371,-14.598 4.838,1.526 5.818,5.79 8.479,8.185 2.884,2.598 4.771,6.303 6.769,9.073 3.908,0.622 7.02,1.085 9.641,-2.677 0.475,-7.14 -4.063,-13.556 -5.979,-21.753 3.365,2.108 6.104,3.822 9.3,5.826 4.364,-6.546 2.782,-13.281 0.393,-20.353 2.437,-1.628 4.941,-3.3 7.678,-5.128 v -8.651 h 5.295 c 7.491,-3.26 2.742,-7.718 1.747,-11.64 0.632,-0.065 1.266,-0.132 1.898,-0.197 1.143,1.888 2.032,3.999 3.472,5.624 5.149,5.809 10.735,10.984 16.98,15.822 7.241,5.613 15.004,10.741 21.698,17.127 1.943,1.857 4.729,2.876 6.521,4.834 3.934,4.299 7.494,8.945 11.179,13.47 1.733,2.131 3.497,4.248 5.063,6.497 2.222,3.19 4.534,6.359 6.324,9.79 1.76,3.37 2.914,7.058 4.416,10.81 4.778,-5.137 -2.386,-10.184 0.29,-15.832 13.58,19.948 24.504,40.419 30.339,63.453 h 2.696 c 3.219,-18.298 -5.276,-33.362 -13.696,-49.484 6.241,4.445 20.194,20.175 23.775,26.158 5.816,9.716 7.079,21.23 12.578,33.187 2.001,-11.612 -0.62,-20.544 -4.429,-29.059 -4.154,-9.289 -9.066,-18.12 -15.903,-25.959 -3.429,-3.929 -6.712,-8.042 -10.28,-11.895 -0.698,-0.753 -0.875,-1.989 -0.295,-3.812 4.984,4.272 9.492,9.358 15.074,12.597 6.206,3.601 10.411,8.988 15.152,13.841 4.639,4.746 7.993,10.718 12.343,15.782 C 7.979,87.635 9.146,94.54 15.262,98.521 14.784,91.175 13.219,85.551 9.881,81.437 3.277,73.298 -3.59,65.372 -10.318,57.332 c -3.91,-4.674 -7.762,-9.397 -11.95,-14.473 4.665,-1.414 5.659,4.759 9.463,4.359 12.571,11.193 26.416,20.972 37.53,33.774 1.148,1.321 1.654,3.2 2.804,4.516 0.617,0.704 1.977,0.761 4.027,1.457 C 23.889,68.769 11.159,56.426 -2.662,44.448 c 1.409,0.623 2.9,1.113 4.219,1.891 7.931,4.681 15.877,9.342 23.69,14.214 1.841,1.147 3.103,3.192 4.817,4.596 0.515,0.42 1.665,0.065 3.364,0.065 C 28.794,51.268 15.838,46.183 6.88,36.774 c 1.755,0.652 3.488,1.372 5.271,1.938 1.639,0.518 3.331,0.87 5.552,1.434 0.051,-1.089 0.12,-2.578 0.181,-3.872 C 13.171,31.136 8.571,26.119 3.748,20.86 5.762,19.911 7.064,19.297 8.715,18.519 6.66,13.472 1.615,11.271 -1.354,6.497 -1.133,5.439 -0.771,3.704 0,0"
             style="fill:#000000;fill-opacity:1;fill-rule:evenodd;stroke:none"
             id="path3733"
             inkscape:connector-curvature="0" /></g><g
           id="g3735"
           transform="translate(503.5781,203.2061)"><path
             d="m 0,0 c 4.712,-3.444 9.345,-6.826 13.258,-9.686 8.445,-3.002 16.21,-5.803 24.004,-8.522 7.502,-2.62 15.265,-4.494 22.05,-7.841 1.783,-4.346 3.459,-8.428 5.009,-12.208 -0.734,-4.355 -3.473,-5.133 -7.163,-4.847 -1.722,-2.739 1.236,-7.286 -5.012,-9.59 -2.544,-0.354 -7.011,-0.299 -11.555,-1.473 -7.187,-1.86 -14.195,1.078 -20.716,4.765 -7.96,4.504 -16.396,8.206 -24.14,13.034 -3.992,2.488 -8.719,1.99 -12.658,4.352 -1.307,-0.618 -2.856,-1.353 -4.745,-2.249 v -6.052 c -1.424,-0.59 -2.843,-0.749 -3.531,-1.545 -1.98,-2.281 -3.415,-5.065 -5.531,-7.182 -2.117,-2.117 -5.051,-3.417 -7.174,-5.529 -2.658,-2.647 -5.793,-4.188 -9.122,-5.705 -7.764,-3.543 -15.412,-7.343 -23.067,-11.119 -2.143,-1.058 -4.146,-2.397 -6.703,-3.894 -5.669,-0.81 -12.03,-1.718 -18.853,-2.69 -4.162,-1.539 -8.095,-4.499 -13.404,-5.538 -3.97,-0.777 -8.221,-3.205 -11.923,-5.493 -3.848,-2.379 -8.106,-3.592 -11.988,-5.664 -3.769,-2.012 -7.216,-4.05 -11.828,-3.961 -1.967,0.037 -4.168,-2.223 -5.936,-3.805 -3.176,-2.843 -6.714,-4.146 -10.544,-3.548 -4.316,-3.3 -8.359,-6.389 -12.919,-9.873 -1.284,6.935 4.886,11.034 5.535,17.466 -7.304,-0.637 -11.765,-7.435 -18.93,-8.086 1.121,6.202 8.95,5.177 9.503,11.739 -3.297,-0.674 -6.245,-1.275 -9.837,-2.009 0.827,1.722 1.249,2.599 1.844,3.836 h -13.928 c -1.235,1.234 -2.135,2.135 -3.034,3.035 1.386,1.719 7.002,1.415 12.178,-0.683 3.358,2.935 9.267,2.558 11.297,9.115 -3.874,-1.265 -6.924,-2.26 -10.507,-3.431 -1.369,0.711 -3.313,1.722 -6.398,3.323 h 11.46 c 1.778,3.477 5.801,3.932 7.584,7.529 1.606,3.24 5.299,5.395 7.828,8.244 2.424,2.73 4.4,5.86 6.824,8.59 2.528,2.849 5.636,5.213 7.977,8.192 2.178,2.775 3.383,6.309 5.535,9.109 5.771,7.52 14.797,10.008 22.811,13.959 4.727,2.332 9.818,3.932 14.769,5.798 5.934,2.236 10.475,5.965 12.881,12.214 -3.985,8.098 -4.335,8.431 -18.11,16.841 -3.247,-0.612 -7.088,-1.332 -11.303,-2.124 v 7.51 c 4.285,2.235 9.176,4.005 13.093,7.034 4.465,3.457 10.327,0.81 14.667,4.317 6.914,-2.968 13.96,-2.79 20.899,0.382 2.451,5.952 5.191,11.738 4.361,18.343 -0.768,6.105 1.182,12.263 -1.508,18.461 -1.737,4.004 -0.05,8.94 -2.114,13.442 -1.577,3.441 -1.701,7.637 -2.027,11.535 -0.317,3.791 0.217,7.654 -0.125,11.439 -0.873,9.672 2.787,18.496 4.858,27.605 2.041,8.979 4.655,17.834 6.544,26.839 0.798,3.816 2.661,7.325 2.23,11.615 -0.379,3.77 2.379,7.396 1.805,11.606 -0.51,3.747 -0.107,7.621 -0.107,11.435 v 12.509 c 4.809,-3.859 7.071,-8.936 8.354,-18.377 5.734,12.555 5.239,25.964 6.138,39.594 1.325,-3.201 2.793,-6.354 3.934,-9.621 1.264,-3.62 2.23,-7.348 3.499,-11.614 1.855,10.581 3.607,20.581 5.708,32.573 0.649,-2.402 0.968,-3.582 1.286,-4.761 0.407,0.342 0.815,0.683 1.221,1.028 1.008,-8.78 2.014,-17.559 3.208,-27.97 1.62,9.797 7.728,16.048 9.529,24.193 0.348,1.573 2.543,2.739 4.271,4.482 2.355,-7.958 -4.033,-15.319 -0.441,-23.405 5.11,5.331 7.156,13.108 14.096,17.19 1.194,-7.304 -1.874,-13.661 -3.665,-20.09 1.538,-0.614 2.627,-1.049 3.958,-1.579 0,-3.097 -0.034,-6.242 0.01,-9.389 0.056,-3.961 0.054,-7.777 1.713,-11.692 1.499,-3.536 4.616,-7.721 0.268,-11.665 4.444,-3.44 0.011,-8.861 3.104,-13.111 1.883,-2.59 1.784,-7.185 -1.403,-10.063 2.81,-5.448 3.189,-10.646 0.122,-15.855 2.04,-3.229 4.102,-6.489 6.151,-9.732 -0.88,-1.09 -1.453,-1.799 -2.387,-2.955 1.158,-0.739 2.433,-1.55 4.018,-2.559 -1.239,-7.129 2.762,-13.286 1.91,-20.258 -0.349,-2.844 2.597,-5.506 1.76,-8.731 -0.442,-1.7 -0.983,-3.375 -1.222,-4.186 0.602,-5.797 1.133,-10.901 1.663,-16.002 C 16.17,62.446 6.863,57.07 12.323,53.45 11.324,51.567 10.35,49.727 9.243,47.644 9.625,46.995 10.78,45.956 10.646,45.126 8.177,29.828 3.208,15.14 0,0"
             style="fill:#000000;fill-opacity:1;fill-rule:evenodd;stroke:none"
             id="path3737"
             inkscape:connector-curvature="0" /></g><g
           id="g3739"
           transform="translate(255.8398,124.0537)"><path
             d="m 0,0 c -3.06,1.175 -4.751,1.823 -7.312,2.807 0.979,-8.498 1.931,-16.741 2.83,-24.528 -1.576,-1.577 -2.605,-2.604 -4.099,-4.097 -1.97,3.926 -3.837,7.651 -5.704,11.371 -0.531,-0.198 -1.064,-0.396 -1.595,-0.593 0.742,-2.795 2.035,-5.582 2.065,-8.384 0.027,-2.598 -1.76,-5.186 -1.907,-7.828 -0.191,-3.476 -0.685,-6.311 -5.678,-7.605 -0.377,1.243 -0.936,3.099 -1.499,4.957 -0.641,-0.498 -1.281,-0.997 -1.922,-1.495 v 11.725 c -3.118,-7.29 -0.483,-16.823 -10.275,-22.668 -0.266,8.489 -0.497,15.802 -0.726,23.113 0.006,-10.044 -6.32,-16.772 -12.333,-25.335 -0.186,9.898 -1.797,18.45 1.203,26.954 -0.727,0.726 -1.498,1.497 -2.7,2.699 -2.966,-5.932 -5.855,-11.715 -8.701,-17.406 h -2.371 c -3.624,7.951 1.885,15.666 1.212,24.099 -4.656,-2.111 -6.174,-8.297 -12.494,-6.407 v 12.532 c -3.391,4.277 -5.545,8.636 -9.048,10.965 -3.673,2.44 -6.65,4.801 -7.401,9.02 h -5.177 c -0.436,1.238 -0.878,2.503 -1.437,4.094 -2.313,0.131 -4.758,0.271 -6.918,0.394 -1.184,1.887 -2.991,3.532 -3.179,5.345 -0.312,3.017 -1.873,4.588 -4.319,5.334 -2.669,0.815 -4.234,2.162 -4.658,5.014 -0.131,0.897 -1.065,2.109 -1.902,2.402 -7.564,2.643 -8.414,10.015 -11.044,14.818 -3.609,2.932 -6.482,5.267 -8.225,6.685 -1.838,5.642 2.202,6.894 3.438,9.179 -2.844,2.095 -5.629,4.151 -8.064,5.948 -0.86,3.874 1.096,8.04 -4.756,10.826 -2.254,-0.581 -5.947,-1.164 -9.356,-2.482 -10.504,-4.057 -21.171,-7.392 -32.86,-9.315 -3.216,6.186 -13.786,5.509 -12.379,15.135 -2.822,1.226 -5.288,2.293 -8.025,3.478 -3.204,6.281 2.894,10.602 4.031,16.107 10.785,5.012 22.338,2.295 33.478,3.968 2.005,0.212 4.01,0.422 6.015,0.634 0.068,-0.414 0.137,-0.827 0.205,-1.241 1.978,0.981 3.953,1.964 6.048,3.004 -1.028,7.116 -3.253,13.511 -9.461,17.789 0.808,1.483 1.291,2.372 2.035,3.741 -1.315,2.233 -2.889,4.906 -4.746,8.062 3.33,2.396 5.961,4.288 8.704,6.26 -4.679,4.555 -7.398,0.904 -10.387,-0.472 -1.801,5.423 -3.438,10.354 -5.17,15.565 0.085,0.084 0.6,0.597 1.632,1.63 -1.874,1.022 -3.748,2.042 -4.878,2.656 0.843,5.156 -1.4,9.383 2.545,12.649 -1.407,0.496 -2.671,0.942 -3.937,1.387 -0.177,0.656 -0.709,1.681 -0.471,1.911 5.2,5.045 -0.68,9.6 -0.668,14.4 0.002,1.517 -1.29,3.04 -2.218,5.059 1.726,1.924 3.316,3.692 4.765,5.306 -0.804,1.176 -1.565,2.291 -2.737,4.008 2.979,2.017 5.68,3.842 10.339,6.993 -4.923,0.767 -6.839,1.062 -9.691,1.505 0.41,1.57 0.793,3.038 1.487,5.696 0.217,-0.791 0.06,-0.294 -0.057,0.214 -0.889,3.933 -6.742,7.238 -1.512,11.943 -2.906,5.657 -2.393,12.866 -9.209,16.841 -3.42,1.994 -5.439,6.393 -9.019,10.863 4.843,-1.143 7.986,-1.885 12.198,-2.879 -4.541,8.707 -14.496,10.315 -18.07,18.324 2.043,2.681 4.236,2.263 6.545,1.078 5.997,-3.081 11.937,-6.278 18.019,-9.182 1.701,-0.81 3.815,-0.76 6.183,-0.295 -11.751,7.283 -21.248,16.747 -30.419,26.944 7.924,0.342 17.968,-4.581 31.085,-15.558 -0.979,2.908 -1.077,4.648 -1.988,5.642 -3.433,3.753 -7.357,7.069 -10.655,10.924 -2.374,2.776 -4.043,6.151 -7.395,11.401 3.867,-1.212 5.506,-1.33 6.633,-2.15 3.67,-2.671 7.29,-5.444 10.673,-8.468 3.44,-3.081 6.575,-6.505 11.004,-9.222 -0.503,1.389 -0.636,3.125 -1.566,4.112 -6.503,6.927 -10.718,15.268 -16.979,24.392 9.111,-1.98 14.44,-6.8 17.597,-12.268 4.921,-8.525 12.215,-15.049 17.239,-23.843 0.286,5.68 -5.682,18.3 -11.754,25.386 v 7.461 c 0.777,-0.226 1.43,-0.218 1.759,-0.542 7.467,-7.36 12.07,-16.726 17.609,-25.425 3.54,-5.562 6.7,-11.363 10.943,-18.621 v 16.366 c 0.573,0.097 1.144,0.197 1.714,0.295 4.525,-11.716 9.568,-23.265 13.429,-35.195 3.841,-11.875 7.905,-23.616 13.279,-34.871 2.547,-5.34 4.391,-10.686 4.459,-16.751 0.044,-4.07 1.573,-8.101 1.982,-12.195 0.415,-4.143 -0.377,-8.273 2.06,-12.295 1.129,-1.862 -0.078,-5.009 0.239,-7.513 1.513,-11.94 3.044,-23.917 6.62,-35.437 1.481,-4.782 4.25,-9.164 6.466,-13.798 h 20.812 c 1.056,-2.164 1.919,-3.938 2.964,-6.074 -7.596,-3.168 -9.395,-11.818 -15.324,-17.325 2.642,-7.234 7.948,-12.863 12.864,-18.501 6.677,-7.659 13.636,-15.342 21.642,-21.5 9.068,-6.97 14.146,-16.08 19.109,-25.849 C -13.608,22.76 -7.011,12.226 0,0"
             style="fill:#000000;fill-opacity:1;fill-rule:evenodd;stroke:none"
             id="path3741"
             inkscape:connector-curvature="0" /></g><g
           id="g3743"
           transform="translate(819.2441,304.6357)"><path
             d="m 0,0 c -11.688,-2.902 -18.469,-14.191 -30.737,-12.814 -2.911,-7.535 -7.961,-12.883 -16.036,-16.51 -2.306,-8.507 -7.709,-16.14 -14.096,-23.481 -6.277,-7.212 -10.973,-15.794 -17.188,-23.071 -5.789,-6.777 -14.746,-10.547 -18.851,-19.094 -10.498,-1.68 -16.055,-10.409 -20.827,-14.568 -7.138,-2.584 -11.31,-4.093 -13.21,-4.781 -5.319,-6.33 -9.251,-11.01 -13.306,-15.837 -2.672,-0.246 -5.183,-0.475 -7.149,-0.654 -2.288,-3.295 -4.371,-6.294 -6.451,-9.294 -0.726,0.304 -1.452,0.607 -2.177,0.913 1.078,4.592 2.154,9.185 3.647,15.532 -2.995,-1.149 -5.409,-1.467 -6.963,-2.795 -3.63,-3.094 -6.846,-6.675 -10.352,-10.178 h -7.691 c 0.305,1.123 0.266,2.241 0.739,2.535 8.3,5.136 16.656,10.576 19.924,20.219 4.123,12.164 7.615,24.596 10.511,37.11 2.957,12.771 8.403,25.198 6.518,38.804 4.423,3.919 2.019,10.567 6.549,14.973 3.73,3.63 4.742,9.96 8.29,13.891 5.472,6.069 12.081,11.112 21.083,19.16 3.032,5.081 -7.2,12.243 -2.831,21.661 0.92,0.977 3.025,3.213 5.154,5.475 -10.615,5.918 -22.099,4.988 -33.34,4.531 -10.738,-0.439 -21.918,3.129 -33.205,-4.805 2.911,5.027 6.603,8.641 10.279,10.859 17.133,1.161 33.664,3.573 48.951,12.914 8.148,4.979 18.201,6.274 27.726,0.89 2.506,-1.416 6.155,-0.924 8.495,-2.481 6.546,-4.362 12.912,-0.629 17.069,2.271 11.698,8.157 24.126,10.304 37.77,9.281 5.287,-0.398 10.646,-0.337 15.942,-0.014 16.045,0.972 31.203,-4.043 46.371,-7.7 7.195,-1.735 15.076,-0.834 21.78,-5.045 3.719,-2.338 8.39,-3.282 11.864,-5.881 8.782,-6.57 18.478,-9.645 29.324,-10.296 4.921,-0.294 9.716,-2.395 14.651,-2.947 4.726,-0.529 9.6,-0.513 14.335,-0.02 6.511,0.683 12.918,2.435 19.435,2.984 6.337,0.53 12.754,0.114 19.133,0.114 2.661,0 5.398,0.404 7.96,-0.098 3.359,-0.659 6.563,-2.777 9.869,-2.848 2.462,-0.054 4.976,2.148 10.468,4.785 -2.609,-4.162 -3.445,-5.491 -4.29,-6.842 0.894,-1.101 1.761,-2.171 2.945,-3.628 -4.565,-1.014 -10.375,-4.01 -12.286,-2.396 -5.303,4.484 -7.27,-1.94 -11.011,-1.981 -4.356,-0.049 -8.74,-2.922 -13.025,-2.717 -6.506,0.311 -13.633,-3.144 -19.638,2.638 -1.12,1.077 -4.071,0.362 -6.17,0.297 -12.853,-0.391 -25.13,2.387 -37.275,6.293 -2.387,0.766 -5.231,0.111 -6.309,-1.64 -2.328,-1.246 -4.653,-2.495 -6.539,-3.506 0.729,-1.924 0.798,-3.235 1.463,-3.706 15.759,-11.143 25.2,-37.437 27.896,-50.477 2.796,-13.514 7.417,-26.651 11.337,-39.923 4.455,-15.091 9.58,-30.056 7.313,-46.201 -5.864,-2.995 5.267,-9.662 -2.638,-12.215 v -16.946 c -3.228,-2.598 -6.919,-5.569 -9.694,-7.802 -0.216,-3.969 -0.35,-6.454 -0.468,-8.624 -5.593,-1.129 -10.238,-0.608 -11.836,3.939 -3.306,9.387 -10.49,11.577 -18.998,11.512 -8.146,-0.059 -15.165,4.013 -20.137,8.835 -11.968,11.604 -25.251,22.059 -34.267,36.644 -7.639,12.36 -14.167,24.894 -16.82,39.367 -0.769,4.198 -2.728,9.038 -5.76,11.816 C 2.879,-34.108 1.86,-21.497 0.053,-9.045 -0.324,-6.457 0,-3.77 0,0"
             style="fill:#000000;fill-opacity:1;fill-rule:evenodd;stroke:none"
             id="path3745"
             inkscape:connector-curvature="0" /></g><g
           id="g3747"
           transform="translate(192.4062,652.7349)"><path
             d="m 0,0 c -0.637,0.375 -0.971,0.571 -1.414,0.832 1.809,1.105 1.848,3.137 3.007,4.54 -1.328,1.74 -3.304,0.994 -4.987,1.246 -0.126,0.306 -0.231,0.575 -0.352,0.839 -0.03,0.066 -0.107,0.113 -0.204,0.209 0.412,0.799 0.831,1.614 1.284,2.496 -0.932,0.202 -1.91,0.532 -2.907,0.608 -1.968,0.15 -3.786,-0.541 -5.589,-1.237 -1.702,-0.657 -3.047,-1.786 -4.443,-2.946 -2.136,-1.775 -3.895,-4.036 -6.514,-5.228 -0.467,-0.212 -0.792,-0.745 -1.174,-1.139 -2.654,-2.74 -5.71,-5.002 -8.749,-7.275 -0.832,-0.621 -1.557,-1.366 -2.449,-1.917 -0.946,-0.583 -2.071,-1.103 -2.669,-1.963 -0.664,-0.956 -1.684,-1.382 -2.401,-2.223 -0.773,-0.911 -1.729,-1.816 -2.797,-2.276 -0.708,-0.305 -0.741,-1.125 -1.559,-1.276 -0.59,-0.11 -1.209,-0.678 -1.579,-1.207 -0.421,-0.603 -1.041,-0.895 -1.544,-1.356 -1.066,-0.977 -2.213,-1.867 -3.279,-2.845 -1.068,-0.981 -2.036,-2.05 -3.289,-2.842 -1.221,-0.771 -1.815,-2.325 -3.309,-2.809 -0.501,-1.475 -1.907,-2.035 -2.953,-2.973 -2.361,-2.113 -4.617,-4.343 -6.977,-6.458 -2.352,-2.107 -4.53,-4.424 -6.962,-6.411 -2.962,-2.422 -5.448,-5.296 -8.239,-7.869 -1.985,-1.83 -3.872,-3.787 -6.001,-5.428 -0.972,-0.75 -1.598,-1.703 -2.411,-2.534 -0.856,-0.874 -1.62,-1.836 -2.451,-2.736 -0.17,-0.185 -0.507,-0.215 -0.678,-0.399 -0.884,-0.954 -1.728,-1.946 -2.609,-2.904 -0.566,-0.616 -1.149,-1.22 -1.765,-1.785 -0.787,-0.718 -1.871,-1.249 -2.355,-2.124 -0.518,-0.934 -1.51,-1.244 -2.015,-2.126 -0.513,-0.894 -1.439,-1.518 -2.291,-1.995 -1.673,-0.941 -2.636,-2.651 -4.261,-3.606 -0.157,-0.093 -0.194,-0.435 -0.344,-0.485 -1.923,-0.628 -3.12,-2.252 -4.657,-3.403 -0.576,-0.433 -0.963,-1.117 -1.515,-1.782 h -1.307 c -0.056,0.184 -0.118,0.39 -0.177,0.594 -0.241,0.824 0.303,1.464 0.628,2.087 0.312,0.596 1.045,0.96 1.429,1.535 0.321,0.479 0.759,0.78 1.116,1.161 1.23,1.308 2.294,2.777 3.363,4.228 1.145,1.552 2.256,3.131 3.323,4.737 0.687,1.033 1.222,2.167 1.907,3.202 1.389,2.097 2.905,4.115 4.223,6.254 0.585,0.951 1.37,1.733 1.94,2.707 0.515,0.878 1.528,1.469 2.331,2.175 0.223,0.195 0.569,0.3 0.706,0.536 0.934,1.608 2.631,2.431 3.824,3.774 0.821,0.925 2.022,1.446 2.642,2.631 0.545,1.043 1.929,1.347 2.44,2.479 1.575,0.516 2.229,2.211 3.744,2.879 0.682,0.3 1.453,0.988 1.151,2.137 -1.01,0.431 -2.075,0.884 -3.175,1.353 0.151,2.384 1.676,4.056 3.303,5.76 1.943,2.033 3.696,4.249 5.494,6.416 0.159,0.19 0.05,0.602 0.065,0.903 -0.933,0.608 -1.854,1.208 -2.915,1.899 0.182,0.917 0.279,1.877 0.576,2.77 0.318,0.957 0.92,1.821 1.22,2.782 0.286,0.913 0.797,1.748 1.035,2.621 0.256,0.931 0.197,1.93 1.001,2.667 v 1.864 c -1.201,0.432 -1.834,1.557 -2.835,2.371 0.277,1.653 -0.231,3.248 -0.606,4.857 -0.046,0.194 -0.316,0.337 -0.566,0.585 h -3.125 c -0.205,0.798 -0.403,1.568 -0.625,2.429 -0.419,-0.198 -0.797,-0.507 -1.202,-0.549 -2.27,-0.233 -4.547,-0.401 -6.721,-0.584 -0.815,1.046 -0.822,2.098 -0.747,3.267 -2.546,0.554 -4.839,-1.033 -7.499,-0.789 -0.197,0.426 -0.44,0.951 -0.624,1.349 0.5,0.911 1.496,1.2 1.544,2.273 -2.954,0.394 -5.706,-0.194 -8.461,-1.005 -1.568,-0.462 -3.181,-0.948 -4.856,-0.751 -0.563,0.067 -1.102,0.349 -1.748,0.565 0.178,0.695 0.35,1.368 0.613,2.392 -0.741,-0.285 -1.165,-0.515 -1.617,-0.612 -1.588,-0.343 -3.229,-0.503 -4.767,-0.995 -1.277,-0.407 -2.534,-0.365 -3.815,-0.446 -0.649,-0.04 -1.287,-0.269 -2.061,-0.443 -0.063,0.556 -0.13,1.138 -0.196,1.719 -0.14,0.051 -0.276,0.148 -0.411,0.147 -2.18,-0.033 -4.245,-0.8 -6.4,-1.003 -0.532,-0.71 -1.301,-0.267 -1.949,-0.406 -0.645,-0.137 -1.284,-0.302 -1.922,-0.467 -1.27,-0.327 -2.567,-0.542 -3.776,-1.103 -0.455,-0.212 -1.028,-0.346 -1.514,-0.28 -1.257,0.174 -2.469,-0.145 -3.518,-0.621 -1.964,-0.889 -4.113,-1.002 -6.098,-1.744 -0.816,-0.306 -1.689,-0.458 -2.531,-0.702 -1.061,-0.308 -2.072,-0.696 -3.223,-0.784 -1.123,-0.084 -2.187,-0.765 -3.313,-1.025 -4.198,-0.969 -5.759,-2.242 -9.82,-1.623 0.156,0.524 0.315,1.056 0.45,1.513 0.941,0.402 1.838,0.935 2.808,1.171 2.341,0.57 4.599,1.397 6.895,2.104 1.951,0.6 3.917,1.138 5.875,1.709 1.249,0.364 2.462,0.867 3.706,1.265 1.52,0.488 2.992,1.212 4.547,1.481 1.756,0.304 3.344,1.053 5.039,1.502 3.163,0.84 6.301,1.806 9.404,2.836 2.195,0.729 4.59,0.941 6.568,2.297 1.232,-0.073 2.276,0.736 3.381,0.864 2.023,0.233 3.753,1.238 5.681,1.677 2.557,0.579 4.997,1.58 7.545,2.238 1.454,0.377 2.891,0.952 4.37,1.345 2.062,0.548 4.005,1.57 6.239,1.427 0.472,-0.029 0.96,0.302 1.45,0.44 2.052,0.581 4.276,0.411 6.233,1.414 2.474,-0.407 4.68,1.147 7.137,0.97 0.548,-0.04 1.121,0.286 1.684,0.441 2.055,0.568 4.274,0.416 6.234,1.412 2.474,-0.413 4.68,1.154 7.136,0.967 0.469,-0.036 0.958,0.313 1.451,0.438 2.14,0.541 4.427,0.415 6.467,1.416 2.475,-0.417 4.68,1.16 7.137,0.968 0.469,-0.036 0.958,0.319 1.451,0.436 1.501,0.357 3.031,0.611 4.507,1.047 1.465,0.432 2.826,1.113 4.381,1.379 1.316,0.224 2.586,0.942 3.779,1.613 2.228,1.253 4.78,1.691 7,2.99 2.124,1.244 4.426,2.181 6.606,3.336 2.575,1.363 5.323,2.437 7.645,4.236 1.446,1.12 2.826,2.345 3.632,4.031 -0.308,1.955 -1.381,3.719 -1.394,5.767 -0.004,0.563 -0.26,1.135 -0.453,1.684 -1.105,3.149 -1.568,6.52 -3.287,9.454 0.246,1.391 -1.101,1.727 -1.59,2.531 -1.993,0.118 -3.072,1.428 -4.029,2.786 -0.78,1.105 -1.42,2.302 -2.457,3.209 -0.907,0.793 -1.943,1.312 -3.117,1.56 -2.405,0.507 -4.345,1.526 -5.349,4.014 -0.489,1.211 -1.204,2.372 -2.253,3.319 -1.082,0.977 -2.25,1.668 -3.623,2.077 -0.789,0.234 -1.544,0.557 -2.078,1.219 -0.686,0.85 -1.858,1.209 -2.302,2.297 -1.227,0.008 -1.229,1.466 -2.252,1.85 -1.01,0.38 -1.924,1.097 -2.775,1.796 -1.236,1.016 -2.235,2.308 -2.942,3.711 -1.592,3.159 -3.945,5.284 -7.403,6.133 -1.562,1.249 -3.669,1.441 -5.232,2.718 -0.424,0.346 -1.077,0.414 -1.759,0.656 -0.93,0.743 -1.976,1.62 -3.066,2.437 -1.007,0.756 -2.158,1.345 -3.074,2.193 -1.505,1.391 -2.958,2.812 -4.765,3.839 -0.35,0.198 -0.416,0.895 -0.611,1.356 0.855,0.79 0.855,0.79 2.51,1.07 -0.292,0.41 -0.464,0.888 -0.802,1.086 -2.645,1.557 -5.183,3.297 -7.929,4.687 -0.848,0.429 -1.759,0.859 -2.412,1.516 -0.894,0.903 -2.233,0.709 -3.135,1.601 -0.772,0.762 -1.812,1.253 -2.74,1.856 -0.182,0.119 -0.384,0.208 -0.582,0.298 -1.176,0.534 -2.249,1.176 -2.626,2.71 0.265,0.188 0.687,0.487 1.11,0.784 1.856,0.526 3.61,-1.36 5.86,-0.468 -0.151,0.301 -0.233,0.67 -0.46,0.882 -1.458,1.36 -2.713,2.917 -4.427,4.036 -1.6,1.046 -2.471,2.985 -4.306,3.814 -0.415,1.23 -1.572,1.695 -2.459,2.46 -1.984,1.711 -3.869,3.535 -5.811,5.296 -0.715,0.648 -1.475,1.247 -2.303,1.941 v 1.137 h 4.766 c -3.213,3.089 -6.165,6.13 -9.355,8.896 -1.332,1.155 -2.611,2.362 -3.924,3.535 -0.495,0.443 -1.338,0.676 -1.561,1.2 -0.284,0.672 -0.901,0.833 -1.365,1.435 0.278,0.313 0.565,0.636 0.88,0.991 1.634,-0.563 3.255,-1.012 4.778,-1.684 1.089,-0.48 1.845,-0.433 2.595,0.729 -0.388,0.393 -0.755,0.767 -1.124,1.138 -0.775,0.777 -1.708,1.453 -2.282,2.356 -0.544,0.856 -1.322,1.439 -1.933,2.2 -0.679,0.844 -1.452,1.624 -2.25,2.36 -1.005,0.928 -1.979,1.95 -3.143,2.631 -1.82,1.066 -3.404,2.406 -5.07,3.665 -1.211,0.915 -2.414,1.767 -3.101,3.645 v 1.093 c 2.798,-0.627 5.449,-1.591 8.171,-2.443 0.663,1.57 -0.384,2.538 -0.944,3.404 -0.988,1.526 -2.366,2.802 -3.599,4.165 -0.361,0.399 -0.77,0.762 -1.188,1.103 -0.337,0.275 -1.06,0.55 -1.03,0.729 0.152,0.911 -1.015,0.49 -0.966,0.987 0.079,0.793 -0.608,0.514 -0.881,0.787 -0.277,0.276 -0.682,0.505 -0.81,0.839 -0.659,1.717 -2.596,2.467 -3.125,4.36 -0.208,0.747 -0.442,1.367 -0.237,2.164 1.918,-0.522 3.81,-1.036 6.243,-1.698 -0.721,1.057 -1.111,1.693 -1.563,2.282 -1.283,1.669 -2.605,3.307 -3.887,4.976 -1.22,1.589 -2.316,3.286 -3.655,4.765 -0.628,0.692 -1.14,1.378 -1.603,2.18 -0.451,0.78 -1.215,1.373 -1.793,2.087 -0.8,0.99 -1.55,2.022 -2.33,3.029 -1.102,1.426 -2.23,2.832 -3.299,4.283 -0.15,0.203 -0.021,0.611 -0.021,0.923 0.924,0.743 1.7,-0.076 2.534,-0.243 0.847,-0.171 1.632,-0.82 2.577,-0.299 0.286,0.816 -0.556,0.983 -0.861,1.458 -0.32,0.497 -0.573,1.087 -1.01,1.451 -2.14,1.787 -3.674,4.09 -5.261,6.311 -1.238,1.734 -2.071,3.755 -1.699,5.94 0.256,0.256 0.422,0.421 0.672,0.672 0.538,-0.425 1.254,-0.758 1.599,-1.32 0.532,-0.867 1.176,-1.47 2.03,-2.02 0.897,-0.578 1.572,-1.493 2.389,-2.209 0.63,-0.553 1.329,-1.026 2.269,-1.292 -1.838,4.076 -3.677,8.152 -5.637,12.498 0.491,1.059 -0.997,2.242 -0.405,3.626 0.086,0.201 0.321,0.337 0.551,0.566 1.332,-2.641 3.234,-4.867 4.919,-7.244 0.64,-0.902 1.238,-1.834 1.831,-2.768 1.063,-1.673 2.106,-3.359 3.163,-5.037 0.548,-0.871 1.046,-1.783 1.674,-2.594 1.291,-1.667 2.655,-3.278 3.989,-4.913 0.936,-0.059 0.757,-1.172 1.446,-1.514 0.592,-0.295 1.172,-0.688 1.627,-1.161 0.675,-0.703 1.17,-1.584 1.863,-2.266 0.829,-0.815 1.921,-1.351 2.46,-2.478 0.354,-0.743 1.176,-1.037 1.758,-1.566 1.726,-1.57 3.049,-3.515 4.817,-5.039 0.651,-0.562 1.198,-1.243 1.845,-1.811 0.489,-0.43 1.087,-0.736 1.586,-1.158 0.275,-0.233 0.416,-0.618 0.668,-0.888 0.889,-0.948 1.79,-1.886 2.711,-2.801 0.198,-0.198 0.661,-0.232 0.734,-0.436 0.613,-1.722 2.236,-2.453 3.525,-3.403 1.767,-1.3 3.298,-2.856 5.033,-4.175 3.432,-2.608 6.374,-5.813 10.018,-8.161 0.387,-0.249 0.656,-0.672 1.008,-0.983 0.91,-0.801 1.619,-1.799 2.777,-2.367 1.006,-0.494 1.375,-1.888 2.65,-2.125 1.11,-1.731 2.912,-2.713 4.465,-3.919 2.508,-1.949 4.564,-4.434 7.35,-6.05 0.721,-0.418 1.025,-1.301 1.781,-1.823 1.375,-0.95 2.468,-2.311 3.849,-3.249 2.184,-1.483 3.78,-3.702 6.21,-4.852 1.304,-1.871 3.478,-2.642 5.16,-4.044 1.576,-1.313 3.58,-2.123 5.109,-3.477 2.988,-2.644 6.631,-4.379 9.535,-7.11 2.395,-0.894 4.01,-2.967 6.284,-4.111 1.274,-0.641 2.453,-1.672 3.632,-2.573 1.66,-1.268 3.464,-2.341 5.062,-3.663 1.392,-1.15 2.973,-1.998 4.362,-3.11 1.925,-1.542 4.108,-2.694 6.008,-4.291 2.035,-1.71 4.346,-3.092 6.531,-4.624 2.005,-1.405 4.016,-2.804 6.005,-4.233 1.937,-1.392 3.83,-2.846 5.777,-4.224 2.965,-2.099 6.101,-3.955 8.933,-6.245 0.762,-0.616 1.585,-1.165 2.283,-1.846 0.662,-0.646 1.398,-1.215 2.049,-1.885 0.705,-0.726 1.781,-1.188 2.332,-2.093 0.564,-0.922 1.634,-1.215 2.214,-2.09 0.457,-0.691 1.037,-1.303 1.579,-1.935 0.493,-0.576 1.382,-0.689 1.602,-1.66 0.096,-0.422 0.957,-0.632 1.392,-1.024 0.756,-0.682 1.451,-1.43 2.172,-2.15 -0.292,-1.238 1.591,-0.828 1.468,-1.939 1.012,-0.809 1.692,-1.959 2.921,-2.584 0.594,-0.301 0.922,-1.124 1.417,-1.77 h 1.68 c 1.984,0.883 3.704,1.65 5.567,2.48 0.303,0.548 0.516,1.291 0.655,2.123 0.123,0.733 0.804,1.375 1.246,2.052 0.239,0.367 0.495,0.722 0.694,1.012 0.957,0.621 1.877,1.219 2.639,1.715 -0.165,0.966 -0.31,1.687 -0.407,2.413 -0.138,1.036 0.137,2.06 -0.412,3.129 -0.459,0.893 0.303,1.837 0.905,2.805 0.466,0.037 0.984,0.076 1.578,0.121 1.263,0.721 1.514,2.071 1.665,3.399 0.161,1.424 -0.243,2.908 0.49,4.271 0.625,1.163 0.304,2.66 1.297,3.695 0.21,2.59 1.756,4.814 2.02,7.4 0.065,0.628 0.431,1.225 0.629,1.759 1.872,-0.695 3.764,-1.397 5.7,-2.116 1.304,1.729 1.634,3.871 2.137,5.969 0.289,1.203 0.596,2.463 1.042,3.562 0.717,1.768 0.959,3.652 1.684,5.415 0.449,1.093 0.988,2.102 1.438,3.058 1.678,0.924 2.663,-1.004 4.067,-0.695 0.617,-1.536 1.675,-2.33 3.331,-2.391 0.37,0.866 0.815,1.709 1.089,2.604 0.258,0.845 0.182,1.811 0.524,2.607 0.699,1.627 0.804,3.446 1.565,4.989 0.378,0.766 -0.065,1.631 0.69,2.346 0.398,0.377 0.416,1.387 0.611,2.069 0.335,1.166 1.149,2.195 1.731,3.229 h 2.118 c 0.837,-0.599 1.739,-1.246 2.812,-2.015 0.293,0.493 0.624,0.882 0.774,1.331 1.235,3.722 2.556,7.423 3.605,11.198 0.666,2.398 1.527,4.696 2.532,6.951 0.951,2.136 2.16,4.11 4.048,5.623 h 2.479 c 0.699,-1.597 1.643,-3.141 3.23,-4.208 h 0.77 c 2.81,7.748 5.604,15.45 8.545,23.557 0.372,0.275 1.091,0.805 1.977,1.459 1.588,-0.143 3.32,-0.299 5.191,-0.468 0.465,1.362 0.842,2.938 1.534,4.361 0.721,1.483 0.753,3.124 1.38,4.604 0.085,0.202 0.273,0.361 0.485,0.633 -0.404,1.48 0.428,2.796 0.914,4.194 0.858,2.465 1.552,4.994 2.829,7.292 0.497,0.893 1.036,1.763 1.605,2.725 h 2.251 c 0.621,-0.427 1.448,-0.769 1.924,-1.383 0.503,-0.646 1.021,-1.118 1.957,-1.46 0.232,0.394 0.455,0.828 0.728,1.226 1.532,2.236 2.476,4.781 3.711,7.169 0.723,1.4 1.096,3.006 1.946,4.358 1.012,1.611 1.659,3.419 2.779,4.971 0.284,0.393 0.303,0.967 0.504,1.432 0.315,0.732 0.683,1.442 0.997,2.102 2.493,-0.048 3.697,-1.58 4.625,-3.391 0.826,-1.616 1.684,-3.227 1.934,-5.085 0.053,-0.396 0.605,-0.724 0.996,-1.158 1.735,4.614 3.39,9.01 5.098,13.547 1.459,-1.349 2.542,-2.536 3.05,-4.326 0.466,-1.647 1.508,-3.126 2.255,-4.7 0.714,-1.507 1.374,-3.039 2.181,-4.832 -0.17,-1.287 0.265,-2.8 0.834,-4.265 0.327,-0.84 -0.279,-1.878 0.595,-2.575 0.157,-1.581 0.476,-3.166 0.436,-4.742 -0.085,-3.402 0.657,-6.739 0.563,-10.153 -0.085,-3.158 -0.545,-6.28 -0.638,-9.44 -0.072,-2.373 -0.951,-4.754 -1.359,-7.154 -1.03,-0.864 -0.085,-2.147 -0.739,-3.238 -0.509,-0.847 -0.854,-2.066 -0.637,-3.259 0.134,-0.734 -0.7,-1.345 -0.447,-2.153 -0.902,-0.96 -0.379,-2.275 -0.845,-3.411 -0.42,-1.028 -0.791,-2.26 -0.613,-3.535 0.081,-0.585 -0.337,-1.245 -0.547,-1.864 -0.093,-0.274 -0.359,-0.549 -0.325,-0.793 0.151,-1.094 -0.175,-2.111 -0.514,-3.093 -0.598,-1.743 -0.211,-3.722 -1.317,-5.331 0.262,-1.931 -0.969,-3.593 -0.993,-5.459 -0.014,-1.171 -0.892,-1.969 -1.091,-3.104 -0.182,-1.039 -0.433,-2.149 -0.832,-3.161 -0.406,-1.028 -0.923,-1.997 -0.941,-3.146 -0.004,-0.25 -0.312,-0.487 -0.444,-0.747 -1.382,-2.715 -2.607,-5.516 -3.618,-8.373 -0.787,-2.223 -1.949,-4.217 -2.981,-6.292 -1.423,-2.863 -2.863,-5.721 -4.414,-8.515 -1.35,-2.433 -2.818,-4.802 -4.315,-7.148 -1.904,-2.984 -3.868,-5.93 -5.849,-8.863 -0.754,-1.115 -1.636,-2.145 -2.452,-3.219 -1.22,-1.609 -2.502,-3.18 -3.611,-4.863 -0.347,-0.528 -1.371,-0.408 -1.183,-1.341 -1.496,-1.653 -2.973,-3.324 -4.492,-4.955 -2.589,-2.776 -5.187,-5.545 -7.823,-8.277 -0.729,-0.756 -1.328,-1.705 -2.448,-2.021 -0.197,-0.057 -0.363,-0.298 -0.499,-0.487 -1.821,-2.541 -4.343,-4.268 -6.901,-5.953 -0.533,-1.225 -1.785,-1.737 -2.684,-2.576 -0.793,-0.74 -1.795,-1.272 -2.63,-2.056 -0.886,-0.832 -2.173,-1.225 -3.121,-2.009 -0.388,-0.32 -0.509,-0.997 -1.442,-1.124 0.459,-0.458 0.744,-0.986 1.154,-1.113 3.584,-1.11 6.325,-3.442 8.692,-6.184 0.793,-0.919 1.294,-2.141 2.15,-3.094 0.311,-0.345 0.371,-0.938 0.49,-1.431 0.721,-2.983 0.738,-5.893 -0.381,-8.85 -0.397,-1.049 -0.131,-2.374 -0.544,-3.539 -0.741,-2.093 -0.902,-4.333 -1.308,-6.487 -0.457,-2.425 -0.445,-5.085 0.548,-7.465 0.375,-0.897 0.057,-1.612 0.457,-2.762 -1.45,0.754 -2.497,1.295 -3.259,2.207 -1.153,1.385 -2.341,2.763 -3.307,4.276 -1.085,1.696 -2.815,2.27 -4.508,2.668 -1.905,0.45 -3.892,0.73 -5.905,0.556 C 83.197,43.15 81.849,43.15 80.526,43.263 78.14,43.464 75.884,42.751 73.644,42.222 72.214,41.885 70.88,40.888 69.662,39.976 68.576,39.161 67.678,38.081 66.854,36.984 64.925,35.789 62.794,34.865 60.708,33.848 58.56,32.801 56.393,31.805 54.141,30.967 52.248,30.262 50.577,28.97 48.693,28.232 45.817,27.107 43.376,25.214 40.591,23.95 40.259,23.798 39.975,23.509 39.71,23.244 37.627,21.142 35.28,19.376 32.825,17.736 32.433,17.475 32.315,16.832 31.96,16.477 31.605,16.121 31.034,15.977 30.689,15.615 29.27,14.121 27.597,12.962 25.917,11.797 24.099,10.533 22.435,9.009 20.364,8.17 18.539,7.43 16.824,6.275 14.677,6.528 14.141,6.591 13.524,6.319 13.003,6.075 12.153,5.676 11.296,5.49 10.698,5.621 6.952,3.5 3.025,2.339 0,0"
             style="fill:#000000;fill-opacity:1;fill-rule:evenodd;stroke:none"
             id="path3749"
             inkscape:connector-curvature="0" /></g><g
           id="g3751"
           transform="translate(657.3013,618.9629)"><path
             d="m 0,0 c -0.336,-3.18 -1.861,-6.186 0.258,-9.066 0.56,-0.761 0.086,-2.285 0.086,-3.458 0,-5.085 -0.137,-10.176 0.051,-15.253 0.109,-2.978 0.853,-5.929 1.052,-8.909 0.067,-0.983 -0.681,-2.022 -1.093,-3.128 -8.454,6.349 -9.118,8.593 -11.209,25.609 -0.92,-4.215 -1.61,-7.366 -2.364,-10.823 -4.828,2.968 -7.779,7.161 -9.904,12.048 -0.432,0.993 -1.004,1.991 -1.141,3.037 -0.49,3.736 -0.98,7.485 -1.168,11.245 -0.197,3.902 -0.045,7.821 -0.045,11.733 v 6.509 c -2.166,-2.811 -3.728,-4.84 -5.732,-7.439 -1.568,3.114 -5.146,2.79 -6.47,6.239 -0.961,2.505 -3.912,4.246 -6.034,6.386 -2.852,-0.496 -4.964,-3.785 -8.769,-1.859 -0.574,0.905 -1.467,2.312 -2.593,4.087 -6.622,-0.393 -13.411,-0.427 -15.304,8.338 -1.116,-0.158 -2.076,-0.149 -2.933,-0.441 -2.789,-0.948 -5.096,-0.456 -6.839,1.631 -0.226,0.269 -0.299,0.66 -0.49,0.965 -0.966,1.546 -1.946,3.082 -3.051,4.824 -5.238,-0.807 -8.766,1.42 -10.188,6.891 h -4.958 c -1.808,2.228 -3.458,4.804 -5.643,6.794 -1.981,1.805 -4.546,2.971 -6.951,4.481 0.627,1.26 1.106,2.223 1.546,3.106 -1.864,3.278 -5.62,2.734 -8.231,4.589 -3.059,-1.089 -4.668,-3.531 -5.967,-6.398 -2.722,-6.002 -4.809,-12.119 -5.953,-18.684 -1.671,-9.576 -5.375,-18.547 -11.03,-26.476 -2.917,-4.09 -7.856,-4.607 -12.71,-5.051 -1.141,1.377 -2.25,2.714 -3.491,4.21 -4.145,-2.629 -8.496,-3.676 -12.699,-2.68 -3.737,0.886 -8.084,1.832 -9.208,6.545 -5.903,0.707 -9.008,4.602 -11.732,9.135 v 10.398 c -3.56,1.729 -5.952,4.4 -7.139,8.311 0.139,2.533 1.9,4.229 3.612,6.002 7.476,7.739 16.44,13.387 25.691,18.711 4.776,2.749 9.305,5.945 13.828,9.108 2.708,1.892 5.481,3.819 7.127,7.785 0.738,4.971 3.033,10.797 -0.346,16.543 -7.533,-7.96 -8.927,-7.03 -16.792,-2.035 -0.133,0.91 -0.29,1.988 -0.456,3.131 h -6.25 c -0.735,0.953 -1.563,2.026 -2.886,3.741 v 3.214 h -5.601 c -2.371,2.066 -4.799,4.181 -7.319,6.377 v 4.239 c -3.069,1.324 -6.058,2.614 -9.257,3.993 v 7.408 c -3.025,2.502 -7.944,1.997 -9.566,6.412 1.328,3.728 6.41,2.099 8.8,6.476 -4.831,-2.629 -8.974,-1.649 -12.875,-1.878 -0.726,0.761 -1.256,1.317 -1.947,2.041 0.318,0.626 0.647,1.272 1.165,2.289 -0.913,0.634 -2.015,1.4 -3.225,2.241 -0.063,1.11 -0.138,2.425 -0.181,3.202 -3.265,1.179 -6.159,2.224 -9.141,3.301 v 3.888 c 1.585,3.667 6.793,3.303 9.097,7.338 -1.947,1.518 -4.061,3.167 -6.272,4.891 -3.275,0.473 -6.539,-0.091 -9.881,-0.922 -3.065,-0.761 -6.255,-0.169 -9.533,-1 -4.226,-1.072 -8.933,-0.163 -13.427,-0.306 -2.01,-0.064 -4.247,0.916 -6.032,-1.073 -0.343,-0.382 -1.84,-0.368 -2.216,0.025 -1.992,2.089 -4.446,1.018 -6.623,1.019 -5.62,0.004 -10.634,1.423 -15.478,5.56 4.405,0.974 8.363,1.913 12.348,2.707 2.553,0.509 5.345,0.337 7.671,1.32 2.614,1.103 5.82,0.027 7.619,1.281 2.459,1.713 5.595,-0.533 7.404,2.115 2.665,-0.145 5.288,-0.11 7.7,2.096 -1.215,0.091 -2.272,0.19 -3.331,0.249 -7.66,0.421 -15.271,1.793 -22.984,1.176 -4.331,1.865 -9.433,0.978 -13.411,4.583 -3.32,3.011 -3.711,2.579 -6.13,7.154 8.935,0 17.834,0.982 26.401,-0.285 8.143,-1.202 16.158,-0.26 24.201,-0.863 0.3,-0.023 0.629,0.336 1.408,0.782 -6.265,0.826 -11.953,2.42 -17.911,2.838 -2.748,0.192 -5.497,1.565 -8.312,0.99 -2.817,-0.574 -5.185,0.87 -7.715,1.362 -4.188,0.814 -7.572,3.586 -10.893,6.187 -1.359,1.064 -2.48,2.431 -4.272,4.223 3.539,-0.319 6.534,1.059 9.331,-1.075 0.251,-0.192 0.761,-0.129 1.132,-0.066 5.22,0.892 10.168,-1.484 15.36,-1.261 1.969,0.085 3.965,-0.78 5.968,-1.075 2.013,-0.297 4.021,0.276 6.056,-1.055 1.181,-0.771 3.279,-0.14 5.023,0.304 -8.266,1.094 -14.718,6.266 -22.076,9.254 -1.349,2.746 -5.444,2.753 -6.444,6.578 1.297,-0.427 2.179,-0.842 3.103,-0.986 0.954,-0.149 1.969,0.089 2.924,-0.058 2.003,-0.308 3.978,-0.787 5.974,-1.14 1.81,-0.321 3.935,0.81 5.38,-1.182 4.523,0.076 8.789,-1.301 13.106,-2.359 5.142,-1.259 10.279,-2.545 15.39,-3.926 4.426,-1.195 8.78,-2.623 13.375,-3.143 2.127,-0.241 4.207,-0.905 7.192,-1.577 -3.089,3.143 -6.857,1.829 -9.317,3.963 -7.776,0.911 -13.248,5.501 -18.522,11.922 3.244,-0.684 5.929,-1.026 8.469,-1.827 9.159,-2.89 18.3,-5.843 27.384,-8.959 4.782,-1.64 9.446,-3.63 14.136,-5.53 7.877,-3.191 15.784,-6.312 23.305,-10.322 1.575,-0.838 3.42,-1.603 5.155,-1.633 5.622,-0.095 10.068,-3.121 14.765,-5.499 2.281,-1.154 4.656,-2.42 6.43,-4.195 1.774,-1.774 2.785,-4.291 4.249,-6.4 3.025,-4.361 4.384,-9.594 7.761,-13.846 2.548,-3.207 4.788,-6.706 7.607,-9.698 3.06,-3.247 5.44,-7.187 10.816,-9.816 1.946,-0.31 4.606,0.678 7.468,2.643 6.287,4.314 13.049,7.951 20.466,9.99 2.669,0.734 5.642,1.303 7.865,-1.05 1.357,1.016 2.306,2.258 3.464,2.5 4.516,0.943 8.84,3.123 13.768,2.327 1.662,-1.232 3.424,-2.538 5.329,-3.95 -0.671,-0.327 -1.073,-0.411 -1.31,-0.655 -1.494,-1.542 -2.716,-3.508 -4.485,-4.577 -1.886,-1.139 -3.853,-2.03 -5.576,-3.533 -6.637,-5.791 -10.982,-13.291 -15.793,-20.71 v -8.195 c 4.652,-5.404 11.354,-7.657 17.94,-9.842 7.751,-2.572 15.773,-4.292 23.473,-7.085 3.157,-1.146 6.18,-2.347 8.561,-4.857 2.82,-2.974 6.42,-5.444 8.449,-8.864 1.885,-3.181 3.996,-6.332 6.24,-9.041 C -0.08,81.214 4.068,74.087 9.297,67.708 13.957,62.021 17.52,55.451 21.895,49.514 28.219,40.935 32.016,31.072 36.902,21.873 36.527,21.499 36.4,21.257 36.248,21.24 c -0.76,-0.089 -1.529,-0.118 -2.697,-0.195 -2.971,3.424 -6.078,7.009 -9.916,11.434 0.418,-2.114 0.445,-3.366 0.914,-4.424 2.556,-5.789 5.289,-11.499 7.83,-17.293 3.195,-7.29 6.469,-14.539 9.935,-21.703 0.377,-0.779 0.235,-1.809 0.385,-3.196 -4.006,0.003 -6.703,2.194 -8.678,4.683 -2.818,3.555 -4.947,7.658 -7.548,11.809 -0.067,-1.102 -0.518,-2.296 -0.125,-3.049 3.961,-7.586 5.863,-15.956 9.177,-23.782 0.561,-1.326 0.768,-2.803 1.198,-4.431 -1.545,-0.68 -3.055,-0.676 -4.707,0.111 -1.907,0.907 -4.006,1.865 -4.59,3.878 -1.084,3.735 -4.33,6.168 -5.104,10.272 -0.672,3.565 -3.39,6.649 -4.545,10.403 -1.449,4.713 -4.146,9.042 -6.627,13.452 3.057,-15.538 6.983,-30.875 10.729,-46.438 -6.102,0.622 -9.715,4.011 -12.248,9.358 -2.586,5.465 -4.184,11.189 -6.02,16.88 C 2.768,-8.372 2.049,-5.755 1.473,-3.072 1.24,-1.993 0.506,-1.021 0,0"
             style="fill:#000000;fill-opacity:1;fill-rule:evenodd;stroke:none"
             id="path3753"
             inkscape:connector-curvature="0" /></g><g
           id="g3755"
           transform="translate(1016.3516,665.4775)"><path
             d="m 0,0 c -0.687,-0.903 -1.325,-1.847 -2.069,-2.7 -1.289,-1.479 -2.928,-2.506 -4.661,-3.395 -0.245,-0.126 -0.415,-0.399 -0.63,-0.613 1.91,-2.148 4.369,-3.826 5.621,-6.837 v -1.694 c -1.169,-2.807 -3.727,-3.538 -6.095,-4.203 -1.546,-0.433 -3.078,-1.135 -4.962,-0.98 2.681,-4.983 2.471,-10.166 2.348,-15.408 -0.888,-1.01 -2.056,-1.688 -3.449,-1.921 -3.187,-0.535 -6.777,0.452 -9.539,2.659 0,-1.255 -0.007,-2.393 0.001,-3.531 0.025,-3.481 -0.573,-6.858 -1.749,-10.125 -0.577,-1.604 -1.277,-3.086 -2.96,-3.974 -1.482,-0.781 -2.83,-0.911 -4.251,-0.149 -0.245,0.724 -0.48,1.42 -0.822,2.431 -0.387,-1.366 0.095,-2.574 -0.635,-3.532 0.244,-1.498 -0.686,-2.631 -1.347,-3.774 -0.558,-0.962 -1.408,-1.843 -2.321,-2.487 -0.909,-0.642 -2.022,-1.134 -3.11,-1.335 -0.897,-0.166 -1.85,0.286 -2.637,0.887 -1.339,1.025 -1.835,2.506 -2.32,4.033 -0.504,1.591 -1.129,3.146 -1.73,4.706 -0.098,0.249 -0.353,0.436 -0.579,0.704 -0.493,-0.673 -0.617,-1.384 -0.756,-2.171 -0.283,-1.584 -0.796,-3.129 -1.263,-4.674 -0.915,-3.014 -2.63,-5.602 -4.395,-8.161 -1.881,-1.264 -3.678,-2.753 -6.361,-2.235 -0.244,0.373 -0.581,0.885 -0.809,1.233 -0.215,1.188 -0.552,2.204 -0.539,3.215 0.015,1.021 -0.452,1.858 -0.632,2.731 -0.756,-1.127 -1.395,-2.422 -2.345,-3.419 -1.692,-1.775 -3.302,-3.646 -5.573,-4.823 -1.798,-0.931 -3.416,-1.632 -5.186,-1.633 -0.722,0 -1.442,0 -1.987,0 -0.509,0.261 -0.872,0.448 -1.223,0.63 -0.272,2.387 0.955,4.72 0.254,7.133 -0.753,0.229 -1.051,-0.435 -1.331,-0.829 -1.531,-2.148 -3.395,-3.923 -5.497,-5.511 -1.114,-0.842 -2.28,-1.391 -3.544,-1.941 -1.302,-0.566 -2.234,-0.244 -3.3,0.245 -0.24,0.11 -0.472,0.24 -0.812,0.413 -0.197,0.431 -0.466,0.971 -0.693,1.529 -0.382,0.948 -0.686,1.89 -0.758,2.952 -0.168,2.503 0.401,4.941 0.469,7.417 0.786,0.652 0.22,1.701 0.786,2.51 0.48,0.684 -0.352,1.835 0.504,2.603 0.073,0.065 0.025,0.279 0.01,0.422 -0.19,1.848 0.728,3.601 0.457,5.465 -0.057,0.394 0.164,0.828 0.274,1.327 -0.271,-0.084 -0.566,-0.084 -0.636,-0.21 -2.153,-3.785 -4.783,-7.197 -8.008,-10.124 -1.229,-1.115 -2.501,-2.269 -3.954,-3.024 -1.404,-0.73 -2.715,-1.807 -4.413,-1.901 -0.536,-0.738 -1.322,-0.317 -1.993,-0.426 -0.528,-0.085 -1.056,-0.161 -1.899,-0.29 -0.302,0.073 -0.96,0.232 -1.802,0.435 -0.486,0.529 -1.117,1.215 -1.894,2.059 0,0.442 0.064,1.169 -0.012,1.88 -0.256,2.411 0.881,4.392 2,6.335 1.991,3.461 4.328,6.705 6.348,10.161 1.635,2.799 3.112,5.671 4.466,8.582 1.687,3.633 2.917,7.479 4.106,11.312 1.02,3.286 2.12,6.557 2.64,9.98 0.045,0.302 0.33,0.568 0.673,1.122 -0.552,-0.063 -1.036,-0.026 -1.073,-0.137 -0.41,-1.238 -1.451,-1.995 -2.38,-2.659 -0.76,-0.542 -1.337,-1.062 -1.786,-1.871 -0.871,-1.572 -2.23,-2.752 -3.531,-3.951 -0.579,-0.535 -1.382,-0.83 -2.242,-1.326 h -2.946 c -0.231,-0.23 -0.471,-0.358 -0.525,-0.54 -0.785,-2.684 -2.224,-3.583 -5.091,-4.248 -0.816,-0.19 -1.597,-0.403 -2.434,-0.39 -0.436,0.006 -0.892,-0.085 -1.297,0.021 -0.642,0.169 -1.249,0.469 -1.932,0.737 -2.471,-3.542 -5.692,-5.535 -10.401,-4.298 -0.931,-0.501 -1.402,-1.745 -2.633,-2.18 -1.189,-0.422 -2.24,-1.319 -3.446,-1.594 -1.238,-0.282 -2.591,-0.062 -3.638,-0.062 -0.878,0.404 -1.545,0.711 -2.081,0.958 -1.156,-0.903 -2.059,-1.833 -3.146,-2.416 -3.868,-2.07 -6.791,-1.138 -9.14,2.427 -0.57,0.867 -1.231,1.675 -1.91,2.593 -1.925,-3.444 -4.65,-5.921 -8.2,-7.31 -1.369,-0.536 -2.937,-0.9 -4.651,-0.478 v 2.694 c -1.056,-1.056 -1.882,-1.939 -2.769,-2.755 -1.115,-1.027 -2.32,-1.948 -3.669,-2.655 -1.176,-0.615 -2.368,-1.174 -3.69,-0.837 -1.656,0.82 -2.828,2.033 -3.417,3.76 -0.259,0.761 -0.551,1.514 -0.753,2.29 -0.221,0.852 -0.354,1.726 -0.497,2.44 -2.183,-1.637 -4.242,-3.414 -6.529,-4.817 -1.584,-0.973 -3.412,-1.696 -4.686,-1.584 -2.341,0.63 -2.698,1.87 -2.63,3.399 0.051,1.2 0.01,2.404 0.009,3.802 -1.899,-0.887 -2.758,-2.552 -4.264,-3.509 -1.378,-0.874 -2.574,-2.092 -3.977,-3.004 -1.433,-0.931 -2.746,-2.065 -4.242,-2.868 -1.392,-0.744 -2.534,-2.073 -4.442,-2.138 0,1.159 0.032,2.228 -0.01,3.293 -0.035,0.929 -0.374,1.903 -0.18,2.768 0.243,1.077 0.269,2.023 -0.218,3.096 0.196,0.566 0.898,1.239 0.018,1.897 0.161,0.292 0.318,0.578 0.486,0.884 -0.212,0.07 -0.359,0.165 -0.41,0.128 -3.251,-2.324 -6.904,-3.901 -10.453,-5.674 -2.469,-1.234 -5.091,-2.039 -7.696,-2.897 -0.382,-0.125 -0.749,-0.287 -1.308,-0.503 -0.13,0.245 -0.299,0.563 -0.436,0.824 0.878,2.897 1.758,5.935 2.035,9.356 -0.655,-0.246 -1.134,-0.321 -1.484,-0.573 -2.314,-1.667 -4.927,-2.75 -7.496,-3.917 -2.645,-1.202 -5.321,-2.283 -8.258,-2.608 -1.039,-0.115 -2.043,-0.549 -3.387,-0.929 2.368,4.578 5.462,8.346 8.183,12.553 -1.558,0.373 -2.757,-0.397 -4.033,-0.493 -0.997,-0.074 -1.977,-0.662 -2.958,-0.645 -2.492,0.042 -4.911,-0.729 -7.418,-0.508 -1.01,0.089 -2.051,-0.169 -3.409,-0.302 -0.011,0.008 -0.27,0.226 -0.514,0.43 -0.088,0.768 -0.174,1.51 -0.296,2.575 0.617,0.381 1.486,0.987 2.414,1.477 1.37,0.724 2.565,1.648 3.633,2.764 0.34,0.355 0.798,0.597 1.553,1.147 -0.819,0.096 -1.278,0.3 -1.571,0.158 -1.286,-0.615 -2.632,-0.365 -3.956,-0.4 -1.084,-0.029 -2.173,0.051 -3.254,-0.017 -2.471,-0.156 -4.85,0.438 -7.227,0.922 -1.219,0.249 -2.362,0.914 -3.508,1.461 -0.608,0.29 -1.153,0.717 -1.711,1.104 -0.37,0.257 -0.71,0.556 -1.281,1.009 2.636,1.192 5.026,2.199 7.349,3.341 3.256,1.603 6.679,2.743 10.103,3.898 3.042,1.026 6.019,2.255 9.055,3.268 2.549,0.85 4.977,1.975 7.484,2.907 2.559,0.949 4.85,2.59 7.35,3.728 1.973,0.898 3.833,1.933 5.689,3.047 1.796,1.075 3.579,2.173 5.376,3.248 2.761,1.65 5.37,3.517 7.936,5.427 4.174,3.109 8.514,5.969 12.845,8.84 1.952,1.293 4.121,2.259 6.183,3.386 0.302,0.164 0.566,0.399 0.847,0.602 -2.793,0.981 -5.557,1.952 -8.69,3.053 0.929,0.66 1.513,1.182 2.186,1.533 1.911,0.994 3.921,1.675 6.019,2.251 3.159,0.868 6.528,1.152 9.391,2.971 1.184,-0.058 1.953,0.928 2.968,1.199 1.068,0.285 1.967,0.868 2.963,1.246 2.625,0.997 5.2,2.135 7.759,3.263 2.745,1.21 5.505,2.633 7.423,5.074 0.764,0.974 1.121,2.27 1.65,3.425 0.294,0.644 0.443,1.392 1.274,1.605 -0.713,1.648 -1.593,3.249 -2.094,4.96 -0.548,1.869 -1.544,3.449 -2.621,4.989 -1.033,1.478 -2.289,2.802 -3.342,4.266 -1.778,2.47 -4.015,4.57 -5.57,7.231 -1.232,2.112 -2.532,4.145 -2.853,6.641 -0.066,0.514 -0.367,1 -0.622,1.657 -3.065,0.881 -6.252,1.945 -9.783,1.732 0.209,0.424 0.346,0.699 0.531,1.073 -0.333,0.152 -0.62,0.283 -0.996,0.454 1.06,2.455 1.995,4.941 3.645,7.133 2.638,3.506 2.567,3.56 5.904,5.826 -0.087,1.696 0.877,2.777 2.257,3.8 1.924,1.424 3.949,2.646 6.084,3.679 1.814,0.875 3.77,1.383 5.703,1.952 2.456,0.721 4.931,0.881 7.46,0.853 2.648,-0.029 5.115,-0.825 7.619,-1.526 3.391,-0.951 6.414,-2.725 9.469,-4.362 2.546,-1.363 5.144,-2.639 7.691,-4.042 h 2.4 c -0.324,0.894 -0.585,1.704 -0.912,2.488 -0.628,1.506 -0.794,3.133 -1.281,4.676 -0.444,1.408 -0.907,2.821 -1.388,4.205 -0.478,1.371 -1.49,2.578 -2.368,3.783 -1.065,1.458 -2.218,2.854 -3.365,4.25 -2.563,3.12 -5.064,6.309 -6.545,10.091 -0.782,1.992 -1.914,3.822 -2.447,5.937 -0.506,2.002 -1.566,3.872 -1.998,5.883 -0.539,2.519 -1.491,4.919 -1.906,7.475 -0.238,1.465 -0.589,2.944 -0.983,4.366 -0.395,1.423 -0.246,3.008 -1.149,4.288 0.057,2.097 -0.894,3.976 -1.273,5.975 -0.408,2.144 -1.38,4.061 -2.083,6.085 -0.549,1.585 -1.458,3.074 -1.437,4.839 0.002,0.154 -0.262,0.312 -0.381,0.441 0.768,0.952 0.209,2.08 0.437,3.09 1.508,1.272 2.465,1.682 4.476,-0.2 2.159,-2.019 3.649,-4.566 5.456,-6.861 1.013,-1.287 1.881,-2.689 2.842,-4.019 0.058,-0.079 0.379,0.033 0.477,0.044 -0.094,1.161 -0.288,2.253 -0.244,3.336 0.087,2.134 -0.667,4.179 -0.513,6.334 0.074,1.019 -0.434,2.08 -0.704,3.226 1.124,1.116 2.661,0.167 3.935,0.524 5.957,-2.818 10.022,-9.898 11.808,-16.087 h 0.64 c 0,1.343 -0.231,2.745 0.064,4.027 0.305,1.33 0.415,2.632 0.353,3.956 -0.061,1.246 -0.281,2.484 -0.414,3.726 -0.142,1.315 0.169,2.628 -0.386,3.965 -0.476,1.148 -0.51,2.481 -0.765,3.864 0.621,-0.082 1.241,-0.332 1.7,-0.801 1.954,-1.998 4.445,-3.253 6.706,-4.81 2.639,-1.819 4.148,-4.326 5.282,-7.174 0.099,-0.25 0.02,-0.566 0.048,-0.849 0.189,-1.945 0.384,-3.89 0.592,-5.977 0.262,0.115 0.616,0.154 0.689,0.319 1.417,3.173 2.725,6.393 3.924,9.656 0.494,1.346 1.269,2.544 2.116,3.673 0.651,0.866 1.614,1.303 2.848,1.163 1.709,-1.353 2.341,-3.31 2.899,-5.407 0.416,-1.565 0.433,-3.217 1.143,-4.73 0.276,-0.594 0.053,-1.411 0.119,-2.121 0.05,-0.531 0.199,-1.053 0.35,-1.826 -0.004,-0.007 -0.159,-0.226 -0.333,-0.47 0.183,-0.739 0.377,-1.522 0.616,-2.488 0.605,0.346 1.26,0.578 1.727,1.014 1.346,1.258 2.883,2.446 3.64,4.125 0.689,1.533 2.029,1.988 3.251,2.669 0.391,0.218 1.053,-0.015 1.584,-0.089 0.332,-0.045 0.652,-0.178 0.959,-0.266 0.802,-0.803 1.612,-1.615 2.386,-2.392 0.33,-0.938 0.806,-1.864 0.962,-2.842 0.175,-1.089 0.159,-2.191 0.398,-3.302 0.199,-0.924 -0.251,-1.988 -0.458,-3.265 1.224,0.484 2.317,0.702 3.136,1.296 0.966,0.705 2.103,0.892 3.119,1.413 0.984,0.506 2.116,0.654 3.35,0.372 0.292,-0.976 0.608,-2 0.907,-3.029 0.299,-1.035 0.462,-2.128 0.902,-3.098 0.48,-1.064 0.112,-2.253 0.577,-3.231 0.539,-1.134 0.025,-2.26 0.353,-3.567 1.184,0 2.462,-0.038 3.737,0.012 1.046,0.041 1.871,-0.316 2.623,-1.026 1.91,-1.804 3.291,-3.876 3.527,-6.572 0.899,-0.454 0.2,-1.422 0.695,-2.118 0.384,-0.54 0.176,-1.501 0.236,-2.344 0.169,-0.032 0.364,-0.084 0.562,-0.101 0.632,-0.053 1.314,0.039 1.885,-0.17 0.748,-0.276 1.475,-0.708 2.085,-1.222 0.452,-0.377 0.814,-0.951 1.029,-1.509 0.722,-1.882 1.744,-3.667 1.782,-5.782 0.014,-0.8 0.335,-1.594 0.54,-2.495 1.486,-0.157 2.977,-0.667 4.044,-1.925 1.069,-1.261 1.65,-2.774 1.903,-4.414 0.114,-0.74 0.345,-1.466 0.413,-2.209 0.072,-0.789 -0.013,-1.591 0.025,-2.385 0.047,-1.064 -0.449,-1.955 -0.796,-2.814 4.245,-2.426 5.729,-6.474 6.627,-11.08 2.729,-2.215 3.636,-5.398 3.692,-8.914 0.019,-1.103 0.223,-2.226 -0.385,-3.31 -0.309,-0.552 0.045,-1.254 0.417,-1.743 0.866,-1.139 1.343,-2.367 1.31,-3.812 -0.007,-0.294 0.282,-0.594 0.427,-0.876 -0.845,-1.432 -0.169,-3.398 -1.769,-4.56 0.708,-0.76 1.569,-1.391 1.758,-2.491 0.115,-0.669 0.536,-1.396 0.378,-1.978 -0.381,-1.411 -0.624,-2.909 -1.569,-4.116 -0.73,-0.933 -1.467,-1.861 -2.21,-2.802 1.696,-1.58 2.826,-3.49 2.501,-5.87 -0.719,-1.455 -1.268,-2.923 -3.066,-3.413 1.216,-1.838 0.877,-3.801 0.927,-5.717 -0.538,-0.718 -1.13,-1.402 -1.587,-2.167 -0.196,-0.325 -0.298,-0.941 -0.119,-1.211 0.57,-0.857 0.342,-1.769 0.4,-2.664 -0.66,-1.431 -1.609,-2.55 -3.358,-3.011 -0.653,0.769 -1.871,0.171 -2.708,1.053 -0.633,0.666 -1.591,1.055 -2.401,1.508 -1.925,1.075 -4.084,1.672 -6.221,2.241 -0.401,0.105 -0.794,0.051 -1.155,0.397 -0.179,0.17 -0.657,0.029 -1.21,0.029 0.417,-0.932 0.74,-1.717 1.116,-2.474 0.865,-1.748 1.827,-3.441 2.085,-5.44 0.073,-0.552 0.606,-1.045 0.954,-1.607 2.689,0 5.398,-0.294 8.011,0.083 2.492,0.362 4.953,0.222 7.424,0.367 0.528,0.03 1.042,0.262 1.574,0.404 0.141,-0.129 0.296,-0.271 0.4,-0.365 0.262,0.134 0.513,0.379 0.741,0.36 3.578,-0.304 7.101,0.58 10.672,0.47 2.818,-0.087 5.641,-0.066 8.461,0.002 1.533,0.037 3.06,0.328 4.594,0.399 1.588,0.071 3.182,0.022 4.774,0.013 0.829,-0.005 1.621,-0.025 2.445,-0.38 0.672,-0.289 1.563,-0.019 2.313,-0.191 0.77,-0.174 1.498,-0.562 2.225,-0.897 0.672,-0.309 1.319,-0.671 1.91,-0.976 0.276,-0.643 0.549,-1.183 0.747,-1.75 0.484,-1.408 0.547,-1.767 -0.022,-3.97 -0.38,-1.468 -1.023,-2.866 -1.544,-4.283 2.54,-0.611 5.389,-0.952 6.232,-4.3 0.341,-2.181 0.179,-4.371 -1.195,-6.298 -1.28,-1.798 -2.906,-3.135 -5.365,-3.608 C -6.087,8.002 -2.523,5.948 0,2.604 Z"
             style="fill:#000000;fill-opacity:1;fill-rule:evenodd;stroke:none"
             id="path3757"
             inkscape:connector-curvature="0" /></g><g
           id="g3759"
           transform="translate(1062.3145,645.7529)"><path
             d="M 0,0 C 1.574,1.207 3.113,2.388 4.652,3.568 4.591,3.729 4.528,3.891 4.467,4.053 3.054,3.756 1.639,3.459 0.225,3.162 1.447,4.646 2.318,6.072 3.951,7 c 1.964,1.115 3.513,3.004 4.698,5.188 2.446,4.503 6.348,7.632 10.713,10.236 3.786,2.259 7.902,3.728 12.004,5.231 0.669,0.245 1.483,0.329 2.183,0.209 1.885,-0.319 3.34,0.607 4.954,1.478 -2.073,1.406 -3.988,3.003 -6.156,4.099 -2.882,1.454 -5.157,3.689 -7.805,5.426 -0.238,0.156 -0.689,0.286 -0.698,0.448 -0.145,2.548 -2.778,3.232 -3.818,5.275 -3.651,7.176 -7.814,14.093 -11.074,21.477 -2.387,5.409 -4.731,10.838 -7.095,16.259 0.4,2.6 -2.069,4.302 -1.998,7.016 0.055,2.086 -1.548,4.175 -2.19,6.328 -0.853,2.862 -1.601,5.765 -2.184,8.692 -0.823,4.129 -1.251,8.352 -2.005,12.465 -1.462,7.978 -0.34,15.928 -0.709,23.876 -0.084,1.836 0.678,3.696 0.823,5.563 0.153,1.969 -0.304,4.031 0.098,5.925 1.178,5.549 1.476,11.325 4.427,16.451 0.82,1.423 1.58,1.996 3.504,1.858 0.941,-1.606 2.01,-3.431 3.311,-5.654 1.013,1.42 1.857,2.602 2.72,3.811 h 2.964 c 0.894,-0.992 1.905,-2.117 3.07,-3.411 0.07,-0.405 0.127,-1.14 0.332,-1.83 0.48,-1.625 1.256,-3.196 1.487,-4.85 0.214,-1.529 0.745,-2.931 1.774,-3.821 2.987,-2.581 4.183,-6.153 5.722,-9.275 5.016,-3.198 8.131,-7.593 10.037,-13.02 4.726,-1.829 7.128,-5.812 9.034,-10.197 0.816,-1.877 1.491,-3.921 3.545,-4.714 2.911,-1.126 4.309,-3.864 5.406,-6.14 1.284,-2.663 2.607,-4.758 4.98,-6.582 3.624,-2.784 6.547,-6.273 7.506,-11.01 0.579,-2.857 2.116,-5.349 3.945,-7.47 1.503,-1.743 1.4,-4.135 2.87,-5.68 1.405,-1.475 3.221,-2.553 4.722,-3.949 0.71,-0.66 1.35,-1.59 1.596,-2.512 0.558,-2.089 0.853,-4.247 1.326,-6.754 3.478,-3.476 7.176,-7.305 11.027,-10.976 2.521,-2.403 5.653,-4.186 7.183,-7.742 2.047,0.402 4.06,0.379 5.637,1.196 3.154,1.635 6.63,2.474 9.714,4.127 1.842,0.987 3.81,1.086 5.664,1.796 4.08,1.565 8.264,2.86 12.411,4.249 3.48,1.166 6.962,2.322 10.451,3.46 5.5,1.792 10.9,3.806 16.108,6.362 2.646,1.297 5.671,1.637 8.333,3.061 2.475,1.322 4.79,2.938 7.717,3.485 1.859,0.35 3.493,1.8 5.29,2.621 2.816,1.285 5.929,2.087 8.474,3.763 3.585,2.359 7.527,4.045 11.236,6.103 3.404,1.891 6.961,3.715 10.524,5.416 3.693,1.762 7.318,3.664 10.99,5.474 3.54,1.746 7.101,3.451 10.654,5.175 3.552,1.724 7.164,3.335 10.638,5.204 3.733,2.01 7.334,4.263 11,6.414 0.444,-0.86 0.833,-1.617 1.127,-2.192 -1.301,-1.726 -2.488,-3.607 -3.986,-5.196 -1.293,-1.371 -3.125,-2.242 -4.376,-3.641 -1.214,-1.361 -1.833,-3.242 -3.001,-4.657 -1.448,-1.754 -3.192,-3.265 -4.832,-4.905 v -1.875 c -1.797,-1.453 -3.109,-3.45 -5.375,-4.538 -1.24,-0.596 -2.479,-1.837 -1.932,-3.66 -0.781,-0.457 -1.548,-0.842 -2.245,-1.328 -0.839,-0.583 -1.526,-1.528 -2.44,-1.832 -3.056,-1.016 -4.182,-3.648 -5.586,-6.035 -1.97,-1.131 -3.934,-2.259 -6.074,-3.49 -0.2,-2.365 -2.233,-3.772 -4.046,-4.806 -6.132,-3.494 -12.473,-6.622 -18.857,-9.954 -0.059,-0.542 -0.137,-1.262 -0.224,-2.065 -4.066,-2.758 -8.527,-4.496 -13.273,-4.956 0.24,-1.123 0.458,-2.156 0.687,-3.237 -0.713,-0.159 -1.128,-0.252 -1.568,-0.349 0.185,-0.877 0.677,-1.839 0.481,-2.632 -0.22,-0.885 -1.063,-1.616 -1.633,-2.414 0.215,-0.215 0.43,-0.431 0.845,-0.846 -0.934,-0.62 -1.82,-1.209 -2.583,-1.715 0.282,-0.747 0.578,-1.526 0.871,-2.303 -1.29,-1.818 -2.502,-3.529 -3.693,-5.206 0.321,-0.321 0.536,-0.537 0.554,-0.555 -2.675,-4.455 -5.313,-8.853 -8.001,-13.33 0.354,-0.821 0.743,-1.726 1.188,-2.763 6.145,-2.156 12.402,-4.333 18.644,-6.549 2.522,-0.896 4.916,-2.077 7.531,-2.81 3.422,-0.958 6.893,-1.708 10.308,-2.677 5.469,-1.553 11.068,-2.609 16.489,-4.331 1.791,-0.569 3.891,0.394 5.466,-1.146 4.214,0.706 8.225,-1.09 12.42,-0.986 2.761,0.069 5.53,-0.661 8.307,-0.809 2.888,-0.153 5.936,0.544 8.651,-0.155 5.531,-1.423 11.054,-0.574 16.566,-0.743 5.342,-0.161 10.534,-1.988 15.985,-0.642 -0.002,-0.325 -0.004,-0.652 -0.007,-0.977 -0.625,-0.087 -1.254,-0.268 -1.876,-0.245 -8.1,0.282 -16.199,0.715 -24.304,0.865 -8.224,0.153 -16.455,-0.041 -24.68,0.086 -2.112,0.033 -4.215,0.703 -6.678,0.374 0.595,-0.447 1.132,-1.144 1.793,-1.293 1.975,-0.444 4.455,-0.061 5.888,-1.135 1.887,-1.417 3.964,-0.194 5.884,-1.476 1.438,-0.958 3.886,-0.427 5.934,-0.962 3.095,-0.809 6.422,-0.693 9.641,-1.065 1.715,-0.197 3.405,-0.596 5.109,-0.893 1.555,-0.271 3.348,0.719 4.673,-0.896 0.122,-0.149 0.586,-0.003 0.89,-0.023 4.749,-0.3 9.502,-0.556 14.245,-0.937 1.867,-0.151 3.702,-0.709 5.568,-0.855 1.969,-0.152 4.156,0.497 5.896,-0.15 3.102,-1.155 6.186,-0.529 9.261,-0.814 2.471,-0.228 4.923,-0.709 7.396,-0.865 2.396,-0.152 4.811,-0.034 7.308,-0.601 -0.557,-0.116 -1.116,-0.326 -1.674,-0.331 -3.352,-0.031 -6.708,-0.126 -10.054,0.024 -2.168,0.096 -4.312,0.694 -6.482,0.84 -2.275,0.153 -4.733,-0.494 -6.814,0.158 -3.109,0.973 -6.263,0.231 -9.235,0.894 -3.854,0.86 -7.769,0.257 -11.5,0.962 -3.266,0.616 -6.555,0.236 -9.682,0.885 -3.556,0.738 -7.184,0.201 -10.581,0.949 -3.278,0.722 -6.482,0.5 -9.707,0.804 -2.011,0.189 -3.899,1.093 -6.029,0.916 -2.027,-0.168 -4.16,-0.422 -6.016,0.867 -3.468,-0.68 -6.719,0.912 -10.134,0.965 -2.163,0.033 -4.34,0.454 -6.474,0.884 -5.9,1.188 -9.457,1.225 -14.8,0.016 -0.433,-0.099 -0.913,-0.091 -1.357,-0.027 -4.362,0.637 -8.534,-1.177 -12.881,-0.981 -1.38,0.062 -2.779,-0.647 -4.192,-0.829 -1.293,-0.169 -2.495,-0.349 -3.783,-0.793 -1.844,-0.635 -3.983,-0.111 -6.006,-0.979 -1.676,-0.72 -3.667,-0.908 -5.527,-0.943 -2.08,-0.038 -3.87,-1.598 -6.019,-0.97 -1.426,-1.469 -3.813,-0.21 -5.184,-1.83 -4.293,0.253 -8.212,-1.864 -12.498,-1.91 -2.084,-0.023 -4.272,-0.651 -6.208,-1.482 -1.943,-0.834 -4.296,0.858 -5.912,-1.179 -2.384,0.257 -4.636,-0.591 -6.943,-0.823 -3.222,-0.324 -6.353,-1.646 -9.669,-1.006 -2.331,-1.365 -4.91,-0.995 -7.389,-0.866 -2.773,0.145 -5.503,-0.43 -8.367,0.717 -2.483,0.994 -5.622,-0.563 -8.245,1.064 -5.954,0.22 -11.506,2.419 -17.259,3.481 -6.08,1.122 -11.976,2.976 -18.092,3.923 -3.558,0.551 -7.146,1.192 -10.639,1.947 -2.965,0.64 -6.194,0.817 -8.989,2.491 -2.534,1.518 -5.299,2.645 -7.94,3.986 -0.887,0.449 -1.692,1.055 -2.563,1.539 C 17.456,-1.5 13.965,-1.34 10.699,-0.392 8.388,0.281 6.104,0.737 3.753,0.418 2.558,0.255 1.55,-1.163 0,0"
             style="fill:#000000;fill-opacity:1;fill-rule:evenodd;stroke:none"
             id="path3761"
             inkscape:connector-curvature="0" /></g></g></g></g></svg>